<svg width="793" height="1447" viewBox="0 0 793 1447" fill="none" xmlns="http://www.w3.org/2000/svg">
<g clip-path="url(#clip0_3_119)">
<rect width="793" height="1447" fill="#C8E0CA"/>
<g clip-path="url(#clip1_3_119)">
<path d="M-37 741C-233 591 -84.9998 220.529 -84.9998 141C-84.9998 61.471 -44.258 -3 5.99992 -3C56.2578 -3 18.9999 229 96.9999 141C175 53 159 891 -37 741Z" fill="#253737"/>
<path d="M37.0001 1457C-201.946 1416.04 8.39088 1031.78 -10.9999 857C-30.3907 682.218 29.7421 713 80 713C130.258 713 93 945 171 857C249 769 275.947 1497.96 37.0001 1457Z" fill="#253737"/>
<g clip-path="url(#clip2_3_119)">
<path d="M-44 757C-240 607 -91.9998 236.529 -91.9998 157C-91.9998 77.471 -51.258 13 -1.00008 13C49.2578 13 11.9999 245 89.9999 157C168 69 152 907 -44 757Z" fill="#224B4B"/>
<path d="M30.0001 1473C-208.946 1432.04 1.39088 1047.78 -17.9999 873C-37.3907 698.218 22.7421 729 73 729C123.258 729 86 961 164 873C242 785 268.947 1513.96 30.0001 1473Z" fill="#224B4B"/>
</g>
<g clip-path="url(#clip3_3_119)">
<path d="M-55 770C-251 620 -103 249.529 -103 170C-103 90.471 -62.258 26 -12.0001 26C38.2578 26 0.999855 258 78.9999 170C157 82 141 920 -55 770Z" fill="#145858"/>
<path d="M19.0001 1486C-219.946 1445.04 -9.60912 1060.78 -28.9999 886C-48.3907 711.218 11.7421 742 62 742C112.258 742 75 974 153 886C231 798 257.947 1526.96 19.0001 1486Z" fill="#145858"/>
</g>
</g>
<g clip-path="url(#clip4_3_119)">
<path d="M830 741C1026 591 878 220.529 878 141C878 61.471 837.258 -3 787 -3C736.742 -3 774 229 696 141C618 53 634 891 830 741Z" fill="#253737"/>
<path d="M756 1457C994.946 1416.04 784.609 1031.78 804 857C823.391 682.218 763.258 713 713 713C662.742 713 700 945 622 857C544 769 517.053 1497.96 756 1457Z" fill="#253737"/>
<g clip-path="url(#clip5_3_119)">
<path d="M837 757C1033 607 885 236.529 885 157C885 77.471 844.258 13 794 13C743.742 13 781 245 703 157C625 69 641 907 837 757Z" fill="#224B4B"/>
<path d="M763 1473C1001.95 1432.04 791.609 1047.78 811 873C830.391 698.218 770.258 729 720 729C669.742 729 707 961 629 873C551 785 524.053 1513.96 763 1473Z" fill="#224B4B"/>
</g>
<g clip-path="url(#clip6_3_119)">
<path d="M848 770C1044 620 896 249.529 896 170C896 90.471 855.258 26 805 26C754.742 26 792 258 714 170C636 82 652 920 848 770Z" fill="#145858"/>
<path d="M774 1486C1012.95 1445.04 802.609 1060.78 822 886C841.391 711.218 781.258 742 731 742C680.742 742 718 974 640 886C562 798 535.053 1526.96 774 1486Z" fill="#145858"/>
</g>
</g>
<g clip-path="url(#clip7_3_119)">
<path d="M-308.706 1409.03C-195.02 1628.1 195.523 1546.68 273.844 1560.49C352.164 1574.3 422.731 1545.37 431.458 1495.88C440.185 1446.38 205.24 1442.79 305.448 1381.25C405.655 1319.72 -422.392 1189.96 -308.706 1409.03Z" fill="#253737"/>
<path d="M-1000.98 1211.82C-1002.13 1454.25 -587.188 1313.83 -418.429 1363.28C-249.669 1412.73 -269.542 1348.16 -260.814 1298.67C-252.087 1249.17 -487.032 1245.58 -386.825 1184.04C-286.617 1122.51 -999.827 969.391 -1000.98 1211.82Z" fill="#253737"/>
<g clip-path="url(#clip8_3_119)">
<path d="M-325.678 1413.14C-211.992 1632.21 178.55 1550.79 256.871 1564.6C335.192 1578.41 405.758 1549.49 414.485 1499.99C423.213 1450.5 188.267 1446.9 288.475 1385.37C388.683 1323.83 -439.364 1194.07 -325.678 1413.14Z" fill="#224B4B"/>
<path d="M-1017.95 1215.94C-1019.1 1458.37 -604.16 1317.95 -435.401 1367.4C-266.642 1416.84 -286.514 1352.28 -277.787 1302.78C-269.06 1253.29 -504.005 1249.69 -403.797 1188.16C-303.59 1126.63 -1016.8 973.506 -1017.95 1215.94Z" fill="#224B4B"/>
</g>
<g clip-path="url(#clip9_3_119)">
<path d="M-340.391 1421.72C-226.705 1640.79 163.838 1559.37 242.158 1573.18C320.479 1586.99 391.046 1558.06 399.773 1508.57C408.5 1459.07 173.555 1455.48 273.762 1393.94C373.97 1332.41 -454.077 1202.65 -340.391 1421.72Z" fill="#145858"/>
<path d="M-1032.66 1224.51C-1033.81 1466.94 -618.873 1326.52 -450.114 1375.97C-281.355 1425.42 -301.227 1360.85 -292.5 1311.36C-283.772 1261.86 -518.718 1258.27 -418.51 1196.74C-318.302 1135.2 -1031.51 982.082 -1032.66 1224.51Z" fill="#145858"/>
</g>
</g>
<g clip-path="url(#clip10_3_119)">
<path d="M1099.82 1409.03C986.13 1628.1 595.588 1546.68 517.267 1560.49C438.946 1574.3 368.38 1545.37 359.653 1495.88C350.925 1446.38 585.871 1442.79 485.663 1381.25C385.455 1319.72 1213.5 1189.96 1099.82 1409.03Z" fill="#253737"/>
<path d="M1792.09 1211.82C1793.24 1454.25 1378.3 1313.83 1209.54 1363.28C1040.78 1412.73 1060.65 1348.16 1051.92 1298.67C1043.2 1249.17 1278.14 1245.58 1177.94 1184.04C1077.73 1122.51 1790.94 969.391 1792.09 1211.82Z" fill="#253737"/>
<g clip-path="url(#clip11_3_119)">
<path d="M1116.79 1413.14C1003.1 1632.21 612.56 1550.79 534.239 1564.6C455.919 1578.41 385.352 1549.49 376.625 1499.99C367.898 1450.5 602.843 1446.9 502.635 1385.37C402.428 1323.83 1230.47 1194.07 1116.79 1413.14Z" fill="#224B4B"/>
<path d="M1809.06 1215.94C1810.21 1458.37 1395.27 1317.95 1226.51 1367.4C1057.75 1416.84 1077.62 1352.28 1068.9 1302.78C1060.17 1253.29 1295.12 1249.69 1194.91 1188.16C1094.7 1126.63 1807.91 973.506 1809.06 1215.94Z" fill="#224B4B"/>
</g>
<g clip-path="url(#clip12_3_119)">
<path d="M1131.5 1421.72C1017.82 1640.79 627.273 1559.37 548.952 1573.18C470.631 1586.99 400.065 1558.06 391.338 1508.57C382.61 1459.07 617.556 1455.48 517.348 1393.94C417.14 1332.41 1245.19 1202.65 1131.5 1421.72Z" fill="#145858"/>
<path d="M1823.77 1224.51C1824.93 1466.94 1409.98 1326.52 1241.22 1375.97C1072.46 1425.42 1092.34 1360.85 1083.61 1311.36C1074.88 1261.86 1309.83 1258.27 1209.62 1196.74C1109.41 1135.2 1822.62 982.082 1823.77 1224.51Z" fill="#145858"/>
</g>
</g>
</g>
<defs>
<clipPath id="clip0_3_119">
<rect width="793" height="1447" fill="white"/>
</clipPath>
<clipPath id="clip1_3_119">
<rect width="1446" height="234" fill="white" transform="translate(234 1) rotate(90)"/>
</clipPath>
<clipPath id="clip2_3_119">
<rect width="1446" height="234" fill="white" transform="translate(227 17) rotate(90)"/>
</clipPath>
<clipPath id="clip3_3_119">
<rect width="1446" height="234" fill="white" transform="translate(216 30) rotate(90)"/>
</clipPath>
<clipPath id="clip4_3_119">
<rect width="1446" height="234" fill="white" transform="matrix(-1.94367e-09 1 1 1.94367e-09 559 1)"/>
</clipPath>
<clipPath id="clip5_3_119">
<rect width="1446" height="234" fill="white" transform="matrix(-1.94367e-09 1 1 1.94367e-09 566 17)"/>
</clipPath>
<clipPath id="clip6_3_119">
<rect width="1446" height="234" fill="white" transform="matrix(-1.94367e-09 1 1 1.94367e-09 577 30)"/>
</clipPath>
<clipPath id="clip7_3_119">
<rect width="1472" height="234" fill="white" transform="matrix(-0.984808 -0.173648 -0.173648 0.984808 467.11 1270.65)"/>
</clipPath>
<clipPath id="clip8_3_119">
<rect width="1446" height="234" fill="white" transform="matrix(-0.984808 -0.173648 -0.173648 0.984808 450.138 1274.76)"/>
</clipPath>
<clipPath id="clip9_3_119">
<rect width="1446" height="234" fill="white" transform="matrix(-0.984808 -0.173648 -0.173648 0.984808 435.425 1283.34)"/>
</clipPath>
<clipPath id="clip10_3_119">
<rect width="1446" height="234" fill="white" transform="translate(324 1270.65) rotate(-10)"/>
</clipPath>
<clipPath id="clip11_3_119">
<rect width="1446" height="234" fill="white" transform="translate(340.972 1274.76) rotate(-10)"/>
</clipPath>
<clipPath id="clip12_3_119">
<rect width="1446" height="234" fill="white" transform="translate(355.685 1283.34) rotate(-10)"/>
</clipPath>
</defs>
</svg>
